<svg xmlns="http://www.w3.org/2000/svg" width="233.712" height="336.889" viewBox="0 0 233.712 336.889"><g transform="translate(-88.594 804)"><g transform="translate(88.594 -804)"><path d="M292.162,190.238l-26.3-3.056-2.356,20.273c-7.731,2.249-12.59,6.977-16.112,10.416-2.99,2.921-4.067,3.851-5.732,4.1h-2.578c-1.665-.247-2.74-1.178-5.731-4.1-4.775-4.664-11.992-11.711-25.519-11.711s-20.742,7.048-25.517,11.711c-2.989,2.92-4.065,3.85-5.728,4.1h-2.576c-1.664-.247-2.74-1.178-5.729-4.1-4.776-4.663-11.991-11.711-25.518-11.711s-20.742,7.048-25.517,11.711c-2.988,2.92-4.064,3.85-5.728,4.1h-2.576c-1.664-.247-2.74-1.178-5.728-4.1-3.522-3.439-8.381-8.167-16.11-10.416l-2.356-20.274-26.3,3.056L74.639,329.545l0,.03.011.1a33.159,33.159,0,0,0,32.9,29.189h135.5q.786,0,1.563-.037a33.161,33.161,0,0,0,31.339-29.153l.016-.14Z" transform="translate(-58.45 -21.975)"/><path d="M144.755,106.6l-14.709,14.709a13.867,13.867,0,1,0,19.611,19.611l14.709-14.709a13.867,13.867,0,0,0,19.611,19.611l9.806-9.806a13.867,13.867,0,0,0,19.611,19.611l24.514-24.514L277.4,91.626a27.361,27.361,0,0,0,0-38.693l-34.5-34.5-5.251-5.251-7.967-7.968a17.793,17.793,0,0,0-17.9-4.4L142.972,22.352a13.9,13.9,0,0,0-8.635,18.627A14.105,14.105,0,0,0,151.6,48.715L168.8,43.329l-9.339,9.34-34.32,34.32A13.867,13.867,0,1,0,144.755,106.6Z" transform="translate(-65.805 0)"/></g></g></svg>