<svg xmlns="http://www.w3.org/2000/svg" width="24.442" height="35.232" viewBox="0 0 24.442 35.232"><g transform="translate(-84.45 808)"><g transform="translate(84.45 -808)"><path d="M82.892,187.5l-2.751-.32L79.9,189.3a3.923,3.923,0,0,0-1.685,1.089c-.313.305-.425.4-.6.429h-.27c-.174-.026-.287-.123-.6-.429a3.52,3.52,0,0,0-5.337,0c-.313.305-.425.4-.6.429h-.269c-.174-.026-.287-.123-.6-.429a3.52,3.52,0,0,0-5.337,0c-.313.305-.425.4-.6.429h-.269c-.174-.026-.287-.123-.6-.429a3.924,3.924,0,0,0-1.685-1.089l-.246-2.12-2.751.32,1.693,14.569v.013a3.468,3.468,0,0,0,3.441,3.053H77.757q.082,0,.163,0a3.468,3.468,0,0,0,3.277-3.049l0-.015Z" transform="translate(-58.45 -169.904)"/><path d="M123.573,11.148l-1.538,1.538a1.45,1.45,0,0,0,2.051,2.051l1.538-1.538a1.45,1.45,0,0,0,2.051,2.051l1.025-1.025a1.45,1.45,0,1,0,2.051,2.051l2.564-2.564,4.13-4.13a2.861,2.861,0,0,0,0-4.047l-3.608-3.608-.549-.549-.833-.833a1.861,1.861,0,0,0-1.872-.46l-7.2,2.253a1.454,1.454,0,0,0-.9,1.948,1.475,1.475,0,0,0,1.8.809l1.8-.563-.977.977L121.522,9.1a1.45,1.45,0,1,0,2.051,2.051Z" transform="translate(-115.316 0)"/></g></g></svg>